# xmcd CD database file
#
# Track frame offsets:
#	150
#	11372
#	24205
#	35910
#	49040
#	62305
#	74812
#	86842
#	100642
#	113600
#	126867
#	140152
#	154170
#	166435
#	178355
#	190925
#	202370
#	215117
#
# Disc length: 3025 seconds
#
# Revision: 0
# Processed by: cddbd v1.4PL0 Copyright (c) Steve Scherf et al.
# Submitted via: CDex 1.51
#
DISCID=0f0bcf12
DTITLE=Blu Lu, Wee Bea and Baby Dee - Don't You Feel My Leg
DYEAR=1996
DGENRE=Blues
TTITLE0=Buy Me Some Juice - Blu Lu Barker
TTITLE1=Where's Joe - Blu Lu Barker
TTITLE2=Lyin' In Jail - Blu Lu Barker
TTITLE3=Easy Riding Blues - Wee Bea Booze
TTITLE4=I Just Ain't Feelin' Right (alternate) - Wee Bea Booze
TTITLE5=Feel It - Baby Dee
TTITLE6=I Want To See My Daddy - Baby Dee
TTITLE7=Don't You Feel My Leg - Blu Lu Barker
TTITLE8=That Made Him Mad - Blu Lu Barker
TTITLE9=I Feel Like Laying In Another Woman's Husband's Arms - Blu Lu Barker
TTITLE10=Don't Tell Me Nothin' Bout My Man - Wee Bea Booze
TTITLE11=I'm Gonna Put You Down - Wee Bea Booze
TTITLE12=I Just Ain't Feelin' Right - Wee Bea Booze
TTITLE13=Look What Baby's Got For You - Baby Dee
TTITLE14=Baby Dee Blues - Baby Dee
TTITLE15=Buy Me Some Juice (alternate) - Blu Lu Barker
TTITLE16=You Gotta Show It To Me Baby - Blu Lu Barker
TTITLE17=There Was A L'il Mouse - Blu Lu Barker
EXTD=YEAR: 1996
EXTT0=
EXTT1=
EXTT2=
EXTT3=
EXTT4=
EXTT5=
EXTT6=
EXTT7=
EXTT8=
EXTT9=
EXTT10=
EXTT11=
EXTT12=
EXTT13=
EXTT14=
EXTT15=
EXTT16=
EXTT17=
PLAYORDER=
